<svg width="10" height="10" viewBox="0 0 10 10" fill="none" xmlns="http://www.w3.org/2000/svg">
<mask id="mask0_75_155" style="mask-type:luminance" maskUnits="userSpaceOnUse" x="0" y="0" width="10" height="10">
<path fill-rule="evenodd" clip-rule="evenodd" d="M8.64981 8.62671V2.36588L1.38891 9.62677L0.563965 8.80181L7.77565 1.59013H1.61148V0.423462H8.64981H9.81472H9.81647V8.62671H8.64981Z" fill="white"/>
</mask>
<g mask="url(#mask0_75_155)">
<path d="M8.64973 2.36592H10.1537V-1.26489L7.5863 1.30248L8.64973 2.36592ZM8.64973 8.62675H7.14581V10.1306H8.64973V8.62675ZM1.38884 9.62681L0.325413 10.6903L1.38884 11.7537L2.45228 10.6903L1.38884 9.62681ZM0.563892 8.80184L-0.499548 7.73841L-1.56299 8.80184L-0.499548 9.86533L0.563892 8.80184ZM7.77557 1.59016L8.83901 2.6536L11.4063 0.0862381H7.77557V1.59016ZM1.61141 1.59016H0.107468V3.09409H1.61141V1.59016ZM1.61141 0.423498V-1.08043H0.107468V0.423498H1.61141ZM9.8164 0.423498H11.3204V-1.08043H9.8164V0.423498ZM9.8164 8.62675V10.1306H11.3204V8.62675H9.8164ZM7.14581 2.36592V8.62675H10.1537V2.36592H7.14581ZM2.45228 10.6903L9.71317 3.42936L7.5863 1.30248L0.325413 8.56337L2.45228 10.6903ZM-0.499548 9.86533L0.325413 10.6903L2.45228 8.56337L1.62733 7.73841L-0.499548 9.86533ZM6.71213 0.526725L-0.499548 7.73841L1.62733 9.86533L8.83901 2.6536L6.71213 0.526725ZM1.61141 3.09409H7.77557V0.0862381H1.61141V3.09409ZM0.107468 0.423498V1.59016H3.11533V0.423498H0.107468ZM8.64973 -1.08043H1.61141V1.92742H8.64973V-1.08043ZM9.81465 -1.08043H8.64973V1.92742H9.81465V-1.08043ZM9.8164 -1.08043H9.81465V1.92742H9.8164V-1.08043ZM11.3204 8.62675V0.423498H8.31247V8.62675H11.3204ZM8.64973 10.1306H9.8164V7.12282H8.64973V10.1306Z" fill="#8E8E93"/>
</g>
</svg>
