<svg width="25" height="24" viewBox="0 0 25 24" fill="none" xmlns="http://www.w3.org/2000/svg">
<g opacity="0.5">
<path d="M15.6001 2H6.6001C6.06966 2 5.56096 2.21071 5.18588 2.58579C4.81081 2.96086 4.6001 3.46957 4.6001 4V20C4.6001 20.5304 4.81081 21.0391 5.18588 21.4142C5.56096 21.7893 6.06966 22 6.6001 22H18.6001C19.1305 22 19.6392 21.7893 20.0143 21.4142C20.3894 21.0391 20.6001 20.5304 20.6001 20V7L15.6001 2Z" stroke="black" stroke-width="2" stroke-linecap="round" stroke-linejoin="round"/>
<path d="M14.6001 2V6C14.6001 6.53043 14.8108 7.03914 15.1859 7.41421C15.561 7.78929 16.0697 8 16.6001 8H20.6001" stroke="black" stroke-width="2" stroke-linecap="round" stroke-linejoin="round"/>
<path d="M16.6001 13L13.1001 16.5L11.1001 14.5L8.6001 17" stroke="black" stroke-width="2" stroke-linecap="round" stroke-linejoin="round"/>
</g>
</svg>
