<svg width="24" height="25" viewBox="0 0 24 25" fill="none" xmlns="http://www.w3.org/2000/svg">
<path d="M14 9.5C14 10.0304 13.7893 10.5391 13.4142 10.9142C13.0391 11.2893 12.5304 11.5 12 11.5H6L2 15.5V4.5C2 3.96957 2.21071 3.46086 2.58579 3.08579C2.96086 2.71071 3.46957 2.5 4 2.5H12C12.5304 2.5 13.0391 2.71071 13.4142 3.08579C13.7893 3.46086 14 3.96957 14 4.5V9.5Z" stroke="black" stroke-width="2" stroke-linecap="round" stroke-linejoin="round"/>
<path d="M18 9.5H20C20.5304 9.5 21.0391 9.71071 21.4142 10.0858C21.7893 10.4609 22 10.9696 22 11.5V22.5L18 18.5H12C11.4696 18.5 10.9609 18.2893 10.5858 17.9142C10.2107 17.5391 10 17.0304 10 16.5V15.5" stroke="black" stroke-width="2" stroke-linecap="round" stroke-linejoin="round"/>
</svg>
