<svg width="25" height="24" viewBox="0 0 25 24" fill="none" xmlns="http://www.w3.org/2000/svg">
<g opacity="0.5">
<path d="M15.6 2H6.60001C6.06957 2 5.56087 2.21071 5.18579 2.58579C4.81072 2.96086 4.60001 3.46957 4.60001 4V20C4.60001 20.5304 4.81072 21.0391 5.18579 21.4142C5.56087 21.7893 6.06957 22 6.60001 22H18.6C19.1304 22 19.6391 21.7893 20.0142 21.4142C20.3893 21.0391 20.6 20.5304 20.6 20V7L15.6 2Z" stroke="black" stroke-width="2" stroke-linecap="round" stroke-linejoin="round"/>
<path d="M14.6 2V6C14.6 6.53043 14.8107 7.03914 15.1858 7.41421C15.5609 7.78929 16.0696 8 16.6 8H20.6" stroke="black" stroke-width="2" stroke-linecap="round" stroke-linejoin="round"/>
<path d="M16.6 13L13.1 16.5L11.1 14.5L8.60001 17" stroke="black" stroke-width="2" stroke-linecap="round" stroke-linejoin="round"/>
</g>
</svg>
