<svg width="750" height="700" viewBox="0 0 750 700" fill="none" xmlns="http://www.w3.org/2000/svg">
<path d="M0 9.99998C0 4.47713 4.47715 0 10 0H740C745.523 0 750 4.47715 750 10V690C750 695.523 745.523 700 740 700H9.99999C4.47714 700 0 695.523 0 690V9.99998Z" fill="white"/>
<path d="M10 0.5H740C745.247 0.5 749.5 4.75329 749.5 10V690C749.5 695.247 745.247 699.5 740 699.5H9.99999C4.75329 699.5 0.5 695.247 0.5 690V9.99998C0.5 4.75328 4.75329 0.5 10 0.5Z" stroke="black" stroke-opacity="0.2"/>
</svg>
