<svg width="10" height="11" viewBox="0 0 10 11" fill="none" xmlns="http://www.w3.org/2000/svg">
<mask id="mask0_75_147" style="mask-type:luminance" maskUnits="userSpaceOnUse" x="0" y="0" width="10" height="11">
<path fill-rule="evenodd" clip-rule="evenodd" d="M8.22988 9.08668V2.82584L0.968993 10.0867L0.144043 9.26177L7.35572 2.05009H1.19156V0.883423H8.22988H9.3948H9.39655V9.08668H8.22988Z" fill="white"/>
</mask>
<g mask="url(#mask0_75_147)">
<path d="M8.22981 2.82588H9.73377V-0.804932L7.16638 1.76244L8.22981 2.82588ZM8.22981 9.08671H6.72588V10.5906H8.22981V9.08671ZM0.96892 10.0868L-0.0945085 11.1502L0.96892 12.2137L2.03236 11.1502L0.96892 10.0868ZM0.14397 9.26181L-0.91947 8.19837L-1.98291 9.26181L-0.91947 10.3253L0.14397 9.26181ZM7.35565 2.05013L8.41909 3.11357L10.9864 0.546199H7.35565V2.05013ZM1.19148 2.05013H-0.312454V3.55405H1.19148V2.05013ZM1.19148 0.883459V-0.62047H-0.312454V0.883459H1.19148ZM9.39648 0.883459H10.9004V-0.62047H9.39648V0.883459ZM9.39648 9.08671V10.5906H10.9004V9.08671H9.39648ZM6.72588 2.82588V9.08671H9.73377V2.82588H6.72588ZM2.03236 11.1502L9.29325 3.88932L7.16638 1.76244L-0.0945085 9.02333L2.03236 11.1502ZM-0.91947 10.3253L-0.0945085 11.1502L2.03236 9.02333L1.20741 8.19837L-0.91947 10.3253ZM6.29221 0.986686L-0.91947 8.19837L1.20741 10.3253L8.41909 3.11357L6.29221 0.986686ZM1.19148 3.55405H7.35565V0.546199H1.19148V3.55405ZM-0.312454 0.883459V2.05013H2.69541V0.883459H-0.312454ZM8.22981 -0.62047H1.19148V2.38739H8.22981V-0.62047ZM9.39473 -0.62047H8.22981V2.38739H9.39473V-0.62047ZM9.39648 -0.62047H9.39473V2.38739H9.39648V-0.62047ZM10.9004 9.08671V0.883459H7.89255V9.08671H10.9004ZM8.22981 10.5906H9.39648V7.58279H8.22981V10.5906Z" fill="#8E8E93"/>
</g>
</svg>
