<svg width="70" height="70" viewBox="0 0 70 70" fill="none" xmlns="http://www.w3.org/2000/svg">
<g opacity="0.5">
<path d="M35.0002 64.1667C51.1085 64.1667 64.1668 51.1083 64.1668 35C64.1668 18.8917 51.1085 5.83337 35.0002 5.83337C18.8919 5.83337 5.8335 18.8917 5.8335 35C5.8335 51.1083 18.8919 64.1667 35.0002 64.1667Z" stroke="black" stroke-width="2" stroke-linecap="round" stroke-linejoin="round"/>
<path d="M35 37.9166C39.8325 37.9166 43.75 33.9991 43.75 29.1666C43.75 24.3341 39.8325 20.4166 35 20.4166C30.1675 20.4166 26.25 24.3341 26.25 29.1666C26.25 33.9991 30.1675 37.9166 35 37.9166Z" stroke="black" stroke-width="2" stroke-linecap="round" stroke-linejoin="round"/>
<path d="M20.4165 60.2642V55.4167C20.4165 53.8696 21.0311 52.3859 22.125 51.2919C23.219 50.198 24.7027 49.5834 26.2498 49.5834H43.7498C45.2969 49.5834 46.7807 50.198 47.8746 51.2919C48.9686 52.3859 49.5832 53.8696 49.5832 55.4167V60.2642" stroke="black" stroke-width="2" stroke-linecap="round" stroke-linejoin="round"/>
</g>
</svg>
