<svg width="40" height="40" viewBox="0 0 40 40" fill="none" xmlns="http://www.w3.org/2000/svg">
<g opacity="0.5">
<path d="M35.2901 11.3533C36.1712 10.4723 36.6664 9.27739 36.6665 8.03137C36.6667 6.78534 36.1718 5.59029 35.2909 4.70911C34.4099 3.82793 33.215 3.3328 31.969 3.33264C30.723 3.33249 29.5279 3.82732 28.6467 4.70828L6.40339 26.9566C6.01642 27.3424 5.73024 27.8175 5.57005 28.3399L3.36839 35.5933C3.32531 35.7374 3.32206 35.8905 3.35897 36.0364C3.39588 36.1822 3.47159 36.3153 3.57805 36.4216C3.68451 36.5279 3.81775 36.6034 3.96365 36.6401C4.10955 36.6767 4.26265 36.6733 4.40672 36.6299L11.6617 34.4299C12.1837 34.2712 12.6587 33.9868 13.0451 33.6016L35.2901 11.3533Z" stroke="black" stroke-width="2" stroke-linecap="round" stroke-linejoin="round"/>
<path d="M25 8.33337L31.6667 15" stroke="black" stroke-width="2" stroke-linecap="round" stroke-linejoin="round"/>
</g>
</svg>
