<svg width="457" height="99" viewBox="0 0 457 99" fill="none" xmlns="http://www.w3.org/2000/svg">
<path d="M410.834 98.8333C422.923 98.8333 434.517 97.613 443.066 95.4407C451.614 93.2684 456.417 90.3221 456.417 87.25V29.3333C456.417 26.2612 451.614 23.315 443.066 21.1427C434.517 18.9704 422.923 17.75 410.834 17.75H230.779C223.156 17.769 215.635 17.3018 208.906 16.3912C202.177 15.4805 196.454 14.1555 192.261 12.5375L173.8 5.5875C169.65 3.98593 163.999 2.67127 157.356 1.7615C150.713 0.851734 143.285 0.375316 135.738 0.375H46.1668C34.0774 0.375 22.4831 1.59538 13.9345 3.76768C5.38601 5.93998 0.583496 8.88624 0.583496 11.9583V87.25C0.583496 90.3221 5.38601 93.2684 13.9345 95.4407C22.4831 97.613 34.0774 98.8333 46.1668 98.8333H410.834Z" stroke="black" stroke-width="2" stroke-linecap="round" stroke-linejoin="round"/>
</svg>
